<svg width="36" height="36" viewBox="0 0 36 36" fill="none" xmlns="http://www.w3.org/2000/svg">
<g clip-path="url(#clip0_11_4564)">
<path d="M18 3C12.195 3 7.5 7.695 7.5 13.5C7.5 16.11 8.25 18.555 9.615 20.76C11.04 23.07 12.915 25.05 14.355 27.36C15.06 28.485 15.57 29.535 16.11 30.75C16.5 31.575 16.815 33 18 33C19.185 33 19.5 31.575 19.875 30.75C20.43 29.535 20.925 28.485 21.63 27.36C23.07 25.065 24.945 23.085 26.37 20.76C27.75 18.555 28.5 16.11 28.5 13.5C28.5 7.695 23.805 3 18 3ZM18 17.625C15.93 17.625 14.25 15.945 14.25 13.875C14.25 11.805 15.93 10.125 18 10.125C20.07 10.125 21.75 11.805 21.75 13.875C21.75 15.945 20.07 17.625 18 17.625Z" fill="white"/>
</g>
<defs>
<clipPath id="clip0_11_4564">
<rect width="36" height="36" fill="white"/>
</clipPath>
</defs>
</svg>
